HIERARCHY
ROOT Hips
{
 OFFSET 0.000000 0.000000 0.000000
 CHANNELS 6 Xposition Yposition Zposition Yrotation Xrotation Zrotation
 JOINT Chest
 {
  OFFSET 0.000000 9.585900 0.002600
  CHANNELS 3 Yrotation Xrotation Zrotation
  JOINT Chest2
  {
   OFFSET 0.000000 9.601200 -0.005300
   CHANNELS 3 Yrotation Xrotation Zrotation
   JOINT Chest3
   {
    OFFSET 0.000000 9.561800 0.000000
    CHANNELS 3 Yrotation Xrotation Zrotation
    JOINT Chest4
    {
     OFFSET 0.000000 9.552100 0.000000
     CHANNELS 3 Yrotation Xrotation Zrotation
     JOINT Neck
     {
      OFFSET 0.000000 14.453000 0.000000
      CHANNELS 3 Yrotation Xrotation Zrotation
      JOINT Head
      {
       OFFSET 0.000000 8.936500 -0.011300
       CHANNELS 3 Yrotation Xrotation Zrotation
       End Site
       {
        OFFSET 0.000000 17.073600 -0.006000
       }
      }
     }
     JOINT RightCollar
     {
      OFFSET -2.921100 9.558500 0.000000
      CHANNELS 3 Yrotation Xrotation Zrotation
      JOINT RightShoulder
      {
       OFFSET -13.519700 0.000000 0.000000
       CHANNELS 3 Yrotation Xrotation Zrotation
       JOINT RightElbow
       {
        OFFSET 0.000000 -29.696600 0.000000
        CHANNELS 3 Yrotation Xrotation Zrotation
        JOINT RightWrist
        {
         OFFSET 0.000000 -24.004700 0.000000
         CHANNELS 3 Yrotation Xrotation Zrotation
         End Site
         {
          OFFSET 0.000000 -17.728500 0.000000
         }
        }
       }
      }
     }
     JOINT LeftCollar
     {
      OFFSET 2.921100 9.558500 0.000000
      CHANNELS 3 Yrotation Xrotation Zrotation
      JOINT LeftShoulder
      {
       OFFSET 13.519700 0.000000 0.000000
       CHANNELS 3 Yrotation Xrotation Zrotation
       JOINT LeftElbow
       {
        OFFSET 0.000000 -29.696600 0.000000
        CHANNELS 3 Yrotation Xrotation Zrotation
        JOINT LeftWrist
        {
         OFFSET 0.000000 -24.004700 0.000000
         CHANNELS 3 Yrotation Xrotation Zrotation
         End Site
         {
          OFFSET 0.000000 -17.728500 0.000000
         }
        }
       }
      }
     }
    }
   }
  }
 }
 JOINT RightHip
 {
  OFFSET -7.771700 -0.012900 -0.001300
  CHANNELS 3 Yrotation Xrotation Zrotation
  JOINT RightKnee
  {
   OFFSET 0.000000 -40.869800 0.001200
   CHANNELS 3 Yrotation Xrotation Zrotation
   JOINT RightAnkle
   {
    OFFSET 0.000000 -39.717900 0.002100
    CHANNELS 3 Yrotation Xrotation Zrotation
    JOINT RightToe
    {
     OFFSET 0.000000 -4.965400 11.033500
     CHANNELS 3 Yrotation Xrotation Zrotation
     End Site
     {
      OFFSET 0.000000 -1.423100 5.872300
     }
    }
   }
  }
 }
 JOINT LeftHip
 {
  OFFSET 7.771700 -0.012900 -0.001300
  CHANNELS 3 Yrotation Xrotation Zrotation
  JOINT LeftKnee
  {
   OFFSET 0.000000 -40.869800 0.001200
   CHANNELS 3 Yrotation Xrotation Zrotation
   JOINT LeftAnkle
   {
    OFFSET 0.000000 -39.717900 0.002100
    CHANNELS 3 Yrotation Xrotation Zrotation
    JOINT LeftToe
    {
     OFFSET 0.000000 -4.965400 11.033500
     CHANNELS 3 Yrotation Xrotation Zrotation
     End Site
     {
      OFFSET 0.000000 -1.423100 5.872300
     }
    }
   }
  }
 }
}
MOTION
Frames: 15
Frame Time: 0.008333
0.000000 85.388000 0.000000 0.000000 -5.767877 0.000000 0.000000 11.653817 0.000000 0.000000 -5.885947 0.000000 0.000000 -0.000000 0.000000 0.000000 -0.000000 0.000000 0.000000 12.528835 0.000000 0.000000 0.711642 0.000000 0.000000 -0.000000 0.000000 0.000000 0.000000 -90.000000 0.000000 -2.309062 0.000000 0.000000 2.309062 0.000000 0.000000 -0.000000 0.000000 0.000000 -0.000000 90.000000 0.000000 -2.309062 0.000000 0.000000 2.309062 0.000000 0.000000 8.520406 0.000000 0.000000 1.905762 0.000000 -0.000000 -4.658285 0.000000 0.000000 -0.000000 0.000000 0.000000 8.520406 0.000000 0.000000 1.905762 0.000000 -0.000000 -4.658285 0.000000 0.000000 -0.000000 0.000000
-7.335131 55.606059 25.141884 178.727008 -29.274718 -10.566999 1.039056 13.803615 6.912318 0.394570 7.943218 2.742669 0.553960 9.891729 3.428633 0.391466 7.943677 2.739445 3.594545 22.602000 -1.687077 4.267882 -1.433493 -2.670900 -0.816362 1.531206 -2.580833 -14.377637 -8.320106 5.578304 57.973508 -77.863521 -40.371663 13.053061 -11.243812 -13.526428 -11.672872 3.050166 -3.394390 6.109098 -2.299810 -1.572585 -79.988241 -68.770684 86.058543 8.186064 -18.716379 2.179603 -19.131230 -35.727548 11.367718 28.135478 84.818288 24.872923 0.948732 -17.269123 -1.378702 -0.594695 1.883212 -0.269803 -15.696432 -47.909839 17.426589 174.942077 80.111651 170.387368 -2.330316 -18.055728 1.124417 -0.066056 -0.541234 -0.050554
-7.335654 55.610460 25.144439 178.714778 -29.254825 -10.571771 1.043047 13.817455 6.929375 0.400523 7.925864 2.740268 0.557503 9.907917 3.439868 0.394419 7.942796 2.742945 3.654135 22.752975 -1.702943 4.341779 -1.253950 -2.701287 -0.822454 1.532888 -2.583458 -14.374273 -8.315771 5.559685 57.740544 -77.998148 -40.098423 13.042091 -11.230284 -13.499633 -11.659990 3.042666 -3.404063 6.085693 -2.304824 -1.536447 -79.938459 -68.771982 86.017004 8.227343 -18.757436 2.167312 -19.112409 -35.740253 11.391632 28.066545 84.803291 24.801229 0.937198 -17.263833 -1.362926 -0.598917 1.888369 -0.270862 -15.713804 -47.923863 17.434860 174.915942 80.117473 170.372506 -2.310520 -18.054590 1.111277 -0.071533 -0.541913 -0.050681
-7.322846 55.604542 25.171613 178.848132 -29.045151 -10.732823 0.908229 13.667991 7.031288 0.404884 7.907203 2.737968 0.559075 9.925421 3.448554 0.397999 7.943338 2.745114 3.715216 22.914967 -1.713692 4.413416 -1.065129 -2.727695 -0.836749 1.570278 -2.573559 -14.354999 -8.354392 5.541931 57.587868 -78.099145 -39.927336 13.009509 -11.223042 -13.449167 -11.594649 3.114833 -3.417271 6.008957 -2.397878 -1.521102 -79.904716 -68.768147 85.998867 8.239881 -18.814419 2.129569 -19.348078 -35.876761 11.586005 27.727581 84.780243 24.481186 0.928177 -17.215917 -1.370798 -0.586315 1.865769 -0.264009 -16.122513 -48.244971 17.711057 174.957392 80.019871 170.418828 -2.205137 -17.555910 1.110025 -0.144996 -0.959524 -0.092368
-7.323040 55.608659 25.174584 178.826783 -29.011118 -10.736310 0.921011 13.669848 7.052647 0.404676 7.948893 2.749223 0.566794 9.920825 3.450554 0.399218 7.909609 2.737897 3.774352 23.082152 -1.720962 4.479620 -0.871439 -2.747855 -0.841619 1.673973 -2.548813 -14.349309 -8.457433 5.524366 57.653389 -78.158973 -39.991398 12.948882 -11.224692 -13.378971 -11.558895 3.159185 -3.431356 5.962070 -2.469728 -1.504572 -79.877324 -68.767799 85.991869 8.234909 -18.867151 2.120978 -19.326088 -35.900277 11.618811 27.686400 84.759284 24.436742 0.918304 -17.221477 -1.352472 -0.594625 1.882300 -0.268658 -16.140734 -48.273390 17.741898 174.944031 80.023326 170.406446 -2.199165 -17.552371 1.114334 -0.145065 -0.962335 -0.096728
-7.340862 55.622558 25.150716 178.656235 -29.163832 -10.555395 1.070911 13.824356 6.961166 0.408052 7.965479 2.752436 0.572228 9.938111 3.455495 0.408386 7.953567 2.750510 3.814266 23.183751 -1.740574 4.537549 -0.686480 -2.762025 -0.856076 1.678208 -2.552759 -14.335071 -8.474089 5.506269 57.752577 -78.305976 -40.081334 13.000014 -11.195013 -13.328164 -11.554252 3.085297 -3.438991 5.947914 -2.415272 -1.453477 -80.032704 -68.823711 86.178712 8.223815 -18.912914 2.117199 -19.029846 -35.820576 11.448169 27.875612 84.763899 24.610664 0.903480 -17.263046 -1.326320 -0.596553 1.910757 -0.268458 -15.750787 -47.998929 17.458882 174.858733 80.133809 170.325630 -2.257242 -18.049585 1.098200 -0.070781 -0.544730 -0.067734
-7.339950 55.626241 25.150354 178.634324 -29.131426 -10.561810 1.089476 13.835374 6.987855 0.411292 7.972414 2.753852 0.575963 9.928100 3.453708 0.411563 7.979101 2.755716 3.857140 23.315238 -1.740563 4.586657 -0.526036 -2.772943 -0.863738 1.704019 -2.552217 -14.325178 -8.488515 5.492229 58.074281 -78.404294 -40.378886 13.043189 -11.148854 -13.290461 -11.547493 3.053334 -3.442091 5.940850 -2.394415 -1.437271 -80.149845 -68.847647 86.311385 8.203244 -18.970737 2.148550 -19.005179 -35.834676 11.486895 27.998632 84.731018 24.722390 0.880910 -17.290329 -1.303992 -0.613214 1.943752 -0.274403 -15.779585 -48.022370 17.484663 174.895079 80.134614 170.369838 -2.225442 -18.056395 1.088138 -0.069870 -0.543215 -0.073152
-7.341697 55.628429 25.148205 178.619855 -29.094316 -10.553358 1.097993 13.859256 6.998560 0.414566 7.970563 2.752898 0.579799 9.940810 3.454983 0.414513 7.989223 2.756678 3.893522 23.421023 -1.740919 4.628347 -0.396556 -2.782556 -0.867605 1.720224 -2.555246 -14.325317 -8.552442 5.495522 58.487485 -78.414682 -40.768722 13.066666 -11.104588 -13.253050 -11.528721 3.125900 -3.456596 5.924960 -2.481738 -1.422714 -80.290723 -68.874441 86.471760 8.202748 -19.001760 2.141050 -18.978619 -35.870406 11.498589 27.993569 84.725820 24.720355 0.883660 -17.297701 -1.311926 -0.624222 1.948980 -0.258969 -15.794240 -48.055087 17.478169 174.926714 80.136450 170.410824 -2.187876 -18.062814 1.075360 -0.072491 -0.541963 -0.075293
-7.342781 55.630313 25.143101 178.604987 -29.063740 -10.546975 1.109301 13.880418 7.010359 0.417748 7.983077 2.753022 0.584391 9.975049 3.458923 0.417790 7.983056 2.753036 3.925466 23.504090 -1.740303 4.664584 -0.294552 -2.789948 -0.867533 1.730280 -2.558161 -14.335458 -8.558783 5.471922 59.169925 -78.462180 -41.431461 13.096589 -11.059145 -13.217140 -11.520046 3.155439 -3.465564 5.923714 -2.548195 -1.410666 -80.389447 -68.900606 86.570918 8.230561 -19.086306 2.197946 -18.951365 -35.894776 11.514156 28.121929 84.713631 24.845456 0.859538 -17.318107 -1.297251 -0.622307 1.962458 -0.261089 -15.792832 -48.083180 17.465656 175.081001 80.137953 170.579247 -2.131223 -18.072941 1.060324 -0.083093 -0.543047 -0.062350
-7.342256 55.631509 25.135937 178.587081 -29.034636 -10.548856 1.129292 13.906015 7.032448 0.420811 7.997331 2.752567 0.588308 9.992736 3.458437 0.420866 7.997239 2.752591 3.956095 23.570788 -1.736402 4.698395 -0.212409 -2.793329 -0.866116 1.733331 -2.558695 -14.354093 -8.562637 5.438291 59.886584 -78.508895 -42.120449 13.125474 -11.021331 -13.198084 -11.519153 3.159404 -3.468117 5.922319 -2.636360 -1.404077 -80.285170 -68.955314 86.511655 8.248627 -19.175134 2.204034 -18.934264 -35.911920 11.541327 28.298011 84.697170 25.016599 0.833367 -17.343117 -1.280251 -0.615839 1.978124 -0.270457 -15.790215 -48.110210 17.455978 175.385208 80.138140 170.909658 -2.054124 -18.089035 1.050546 -0.074791 -0.541490 -0.074406
-7.344111 55.628528 25.131362 178.569492 -28.971735 -10.539258 1.143198 13.903519 7.042904 0.423198 8.012642 2.751807 0.591403 10.011824 3.457572 0.420718 7.954461 2.747888 3.989701 23.684995 -1.720106 4.730965 -0.142666 -2.792142 -0.862511 1.787598 -2.557098 -14.376812 -8.583828 5.409501 60.531590 -78.543246 -42.733921 13.147910 -10.998469 -13.198651 -11.524250 3.219023 -3.478027 5.963239 -2.586332 -1.401705 -80.710559 -69.003455 86.925405 8.293710 -19.215677 2.256549 -18.936918 -35.966295 11.566454 28.518951 84.684537 25.226222 0.833212 -17.382439 -1.271160 -0.640118 2.010502 -0.276976 -15.785600 -48.178852 17.439673 175.532450 80.133430 171.084565 -2.000243 -18.103982 1.046687 -0.073934 -0.537034 -0.078279
-7.347906 55.626721 25.119797 178.563320 -28.941202 -10.527048 1.152524 13.938828 7.046094 0.423819 8.006504 2.748597 0.593685 10.052419 3.459206 0.423526 7.999161 2.749141 4.016889 23.705217 -1.713825 4.760935 -0.081547 -2.787651 -0.857102 1.753905 -2.563395 -14.393523 -8.605950 5.379679 61.111441 -78.591211 -43.284985 13.124679 -10.983074 -13.210440 -11.532424 3.192999 -3.478490 5.994208 -2.581275 -1.404685 -80.835857 -69.160905 87.098944 8.247019 -19.310583 2.275892 -18.915202 -35.999039 11.568723 28.647807 84.695136 25.352611 0.813045 -17.404708 -1.261054 -0.640012 2.013600 -0.272047 -15.729810 -48.222059 17.353021 175.579546 80.123812 171.194199 -1.934559 -18.121843 1.034749 -0.082246 -0.536870 -0.075705
-7.354398 55.624032 25.104765 178.556168 -28.921520 -10.504016 1.162229 13.987273 7.038901 0.420906 7.957473 2.740166 0.594615 10.083359 3.461312 0.423388 8.095888 2.754881 4.042199 23.720042 -1.706487 4.788465 -0.027701 -2.781796 -0.850374 1.725549 -2.572659 -14.400459 -8.635436 5.347725 61.485886 -78.668448 -43.647091 13.139497 -10.977862 -13.220340 -11.543213 3.167272 -3.482164 6.017974 -2.602672 -1.408507 -80.948205 -69.288010 87.243012 8.228197 -19.392272 2.340188 -18.882062 -36.034891 11.557143 28.718703 84.724666 25.422221 0.788926 -17.407654 -1.250955 -0.620596 1.988392 -0.263593 -15.662950 -48.259551 17.253619 175.488101 80.104657 171.156543 -1.904013 -18.124108 1.051235 -0.076188 -0.553751 -0.112085
-7.361102 55.618018 25.091913 178.553951 -28.876208 -10.489884 1.163502 14.012187 7.037791 0.423442 8.037407 2.745882 0.593044 9.985828 3.448293 0.421147 8.164096 2.757455 4.067411 23.759939 -1.694525 4.814115 0.021716 -2.774949 -0.839940 1.730257 -2.581042 -14.407596 -8.674593 5.313027 61.807401 -78.751999 -43.955658 13.169428 -10.976255 -13.223917 -11.556253 3.170587 -3.493586 6.040872 -2.628371 -1.410982 -81.150310 -69.340851 87.467575 8.278612 -19.445365 2.433972 -18.884181 -36.087506 11.559583 28.846335 84.748877 25.545297 0.785651 -17.427168 -1.257850 -0.615947 1.982759 -0.252246 -15.640050 -48.322968 17.182491 175.610458 80.086276 171.325757 -1.828782 -18.124165 1.033888 -0.075211 -0.568171 -0.112652
-7.379418 55.610371 25.073826 178.578166 -28.845654 -10.424502 1.126453 14.056776 6.969725 0.425103 8.074772 2.746657 0.594424 10.063208 3.449576 0.423558 8.101123 2.748765 4.089962 23.797474 -1.682525 4.836787 0.068161 -2.767459 -0.826229 1.734616 -2.587277 -14.418199 -8.718295 5.275369 62.103114 -78.836530 -44.226398 13.143052 -10.963436 -13.232664 -11.570381 3.177558 -3.507781 6.060998 -2.660227 -1.410416 -81.217300 -69.458465 87.579382 8.257490 -19.534219 2.523135 -18.845374 -36.166834 11.479913 28.877977 84.824650 25.579214 0.756212 -17.422562 -1.247169 -0.574792 1.928119 -0.243082 -15.575580 -48.377328 17.006342 175.698864 80.076752 171.443755 -1.745697 -18.121649 1.011028 -0.090047 -0.570034 -0.089318
